<svg width="2200" height="358" viewBox="0 0 2200 358" fill="none" xmlns="http://www.w3.org/2000/svg">
<path d="M475.551 289V247.914L625.915 121.518H475.551V83.5701H680.981V124.656L530.618 251.053H680.981V289H475.551ZM743.404 289C736.176 289 729.613 287.193 723.717 283.579C717.82 279.965 713.065 275.21 709.451 269.313C705.837 263.416 704.03 256.854 704.03 249.626V162.889C704.03 155.661 705.837 149.098 709.451 143.202C713.065 137.305 717.82 132.55 723.717 128.936C729.613 125.322 736.176 123.515 743.404 123.515H832.709C839.937 123.515 846.499 125.322 852.396 128.936C858.482 132.55 863.238 137.305 866.662 143.202C870.276 149.098 872.083 155.661 872.083 162.889V225.088H741.406V248.199C741.406 249.15 741.692 250.006 742.262 250.767C743.023 251.338 743.879 251.623 744.83 251.623H872.083V289H743.404ZM741.406 191.421H834.706V164.315C834.706 163.364 834.325 162.604 833.565 162.033C832.994 161.272 832.233 160.892 831.282 160.892H744.83C743.879 160.892 743.023 161.272 742.262 162.033C741.692 162.604 741.406 163.364 741.406 164.315V191.421ZM900.193 289V162.889C900.193 155.661 902 149.098 905.614 143.202C909.228 137.305 913.984 132.55 919.88 128.936C925.967 125.322 932.529 123.515 939.567 123.515H1031.44V160.892H940.994C940.043 160.892 939.187 161.272 938.426 162.033C937.855 162.604 937.57 163.364 937.57 164.315V289H900.193ZM1088.91 289C1081.68 289 1075.12 287.193 1069.22 283.579C1063.32 279.965 1058.57 275.21 1054.95 269.313C1051.34 263.416 1049.53 256.854 1049.53 249.626V162.889C1049.53 155.661 1051.34 149.098 1054.95 143.202C1058.57 137.305 1063.32 132.55 1069.22 128.936C1075.12 125.322 1081.68 123.515 1088.91 123.515H1178.21C1185.44 123.515 1192 125.322 1197.9 128.936C1203.99 132.55 1208.74 137.305 1212.17 143.202C1215.78 149.098 1217.59 155.661 1217.59 162.889V249.626C1217.59 256.854 1215.78 263.416 1212.17 269.313C1208.74 275.21 1204.08 279.965 1198.18 283.579C1192.29 287.193 1185.63 289 1178.21 289H1088.91ZM1090.33 251.623H1176.79C1177.74 251.623 1178.5 251.338 1179.07 250.767C1179.83 250.006 1180.21 249.15 1180.21 248.199V164.315C1180.21 163.364 1179.83 162.604 1179.07 162.033C1178.5 161.272 1177.74 160.892 1176.79 160.892H1090.33C1089.38 160.892 1088.53 161.272 1087.77 162.033C1087.2 162.604 1086.91 163.364 1086.91 164.315V248.199C1086.91 249.15 1087.2 250.006 1087.77 250.767C1088.53 251.338 1089.38 251.623 1090.33 251.623ZM1287.31 289C1280.09 289 1273.43 287.193 1267.34 283.579C1261.44 279.965 1256.69 275.21 1253.08 269.313C1249.46 263.226 1247.65 256.569 1247.65 249.341V233.648H1285.32V247.629C1285.32 248.58 1285.6 249.436 1286.17 250.197C1286.93 250.767 1287.79 251.053 1288.74 251.053H1411.71C1412.66 251.053 1413.42 250.767 1414 250.197C1414.76 249.436 1415.14 248.58 1415.14 247.629V208.54C1415.14 207.589 1414.76 206.828 1414 206.257C1413.42 205.687 1412.66 205.401 1411.71 205.401H1287.31C1280.09 205.401 1273.43 203.594 1267.34 199.98C1261.44 196.366 1256.69 191.611 1253.08 185.714C1249.46 179.628 1247.65 172.875 1247.65 165.457V123.229C1247.65 116.001 1249.46 109.439 1253.08 103.542C1256.69 97.4556 1261.44 92.6052 1267.34 88.9912C1273.43 85.3771 1280.09 83.5701 1287.31 83.5701H1413.42C1420.65 83.5701 1427.22 85.3771 1433.11 88.9912C1439.2 92.6052 1444.05 97.4556 1447.66 103.542C1451.28 109.439 1453.08 116.001 1453.08 123.229V138.922H1415.14V124.941C1415.14 123.99 1414.76 123.229 1414 122.659C1413.42 121.898 1412.66 121.518 1411.71 121.518H1288.74C1287.79 121.518 1286.93 121.898 1286.17 122.659C1285.6 123.229 1285.32 123.99 1285.32 124.941V164.03C1285.32 164.981 1285.6 165.742 1286.17 166.313C1286.93 166.883 1287.79 167.169 1288.74 167.169H1413.42C1420.65 167.169 1427.22 168.976 1433.11 172.59C1439.2 176.204 1444.05 181.054 1447.66 187.141C1451.28 193.038 1453.08 199.695 1453.08 207.113V249.341C1453.08 256.569 1451.28 263.226 1447.66 269.313C1444.05 275.21 1439.2 279.965 1433.11 283.579C1427.22 287.193 1420.65 289 1413.42 289H1287.31ZM1483.66 289V69.3041H1521.04V123.515H1612.34C1619.57 123.515 1626.13 125.322 1632.03 128.936C1637.92 132.55 1642.68 137.305 1646.29 143.202C1649.91 149.098 1651.72 155.661 1651.72 162.889V289H1614.34V164.315C1614.34 163.364 1613.96 162.604 1613.2 162.033C1612.63 161.272 1611.87 160.892 1610.91 160.892H1524.46C1523.51 160.892 1522.66 161.272 1521.9 162.033C1521.32 162.604 1521.04 163.364 1521.04 164.315V289H1483.66ZM1713.33 289C1706.1 289 1699.44 287.193 1693.36 283.579C1687.46 279.965 1682.7 275.21 1679.09 269.313C1675.67 263.416 1673.95 256.854 1673.95 249.626V187.426H1804.63V164.315C1804.63 163.364 1804.25 162.604 1803.49 162.033C1802.92 161.272 1802.16 160.892 1801.21 160.892H1673.95V123.515H1802.63C1809.86 123.515 1816.42 125.322 1822.32 128.936C1828.41 132.55 1833.16 137.305 1836.59 143.202C1840.2 149.098 1842.01 155.661 1842.01 162.889V289H1713.33ZM1714.76 251.623H1804.63V221.094H1711.33V248.199C1711.33 249.15 1711.62 250.006 1712.19 250.767C1712.95 251.338 1713.8 251.623 1714.76 251.623ZM1866.21 289V162.889C1866.21 155.661 1868.02 149.098 1871.63 143.202C1875.25 137.305 1880 132.55 1885.9 128.936C1891.98 125.322 1898.55 123.515 1905.58 123.515H1997.46V160.892H1907.01C1906.06 160.892 1905.2 161.272 1904.44 162.033C1903.87 162.604 1903.59 163.364 1903.59 164.315V289H1866.21ZM2056.32 289C2049.09 289 2042.53 287.193 2036.63 283.579C2030.73 279.965 2025.98 275.21 2022.37 269.313C2018.75 263.416 2016.94 256.854 2016.94 249.626V162.889C2016.94 155.661 2018.75 149.098 2022.37 143.202C2025.98 137.305 2030.73 132.55 2036.63 128.936C2042.53 125.322 2049.09 123.515 2056.32 123.515H2145.62C2152.85 123.515 2159.41 125.322 2165.31 128.936C2171.4 132.55 2176.15 137.305 2179.58 143.202C2183.19 149.098 2185 155.661 2185 162.889V225.088H2054.32V248.199C2054.32 249.15 2054.61 250.006 2055.18 250.767C2055.94 251.338 2056.79 251.623 2057.74 251.623H2185V289H2056.32ZM2054.32 191.421H2147.62V164.315C2147.62 163.364 2147.24 162.604 2146.48 162.033C2145.91 161.272 2145.15 160.892 2144.2 160.892H2057.74C2056.79 160.892 2055.94 161.272 2055.18 162.033C2054.61 162.604 2054.32 163.364 2054.32 164.315V191.421Z" fill="white"/>
<path d="M9.86421 262.035H58.1005C63.5437 262.035 67.9647 266.456 67.9647 271.9V320.136C67.9647 325.579 63.5437 330 58.1005 330H9.86421C4.42102 330 0 325.579 0 320.136V271.9C0 266.456 4.42102 262.035 9.86421 262.035Z" fill="white"/>
<path d="M291.142 87.2572H252.613C247.164 87.2572 242.749 82.8425 242.749 77.393V38.8642C242.749 33.4148 238.334 29 232.885 29H68.1276C62.6781 29 58.2634 33.4148 58.2634 38.8642V77.393C58.2634 82.8425 53.8486 87.2572 48.3991 87.2572H9.87034C4.42087 87.2572 0.00610352 91.672 0.00610352 97.1215V232.744C0.00610352 238.193 4.42087 242.608 9.87034 242.608H58.1066C63.5561 242.608 67.9708 238.193 67.9708 232.744V106.829C67.9708 101.379 72.3856 96.9647 77.835 96.9647H223.171C228.62 96.9647 233.035 101.379 233.035 106.829V252.165C233.035 257.614 228.62 262.029 223.171 262.029H97.2562C91.8067 262.029 87.392 266.444 87.392 271.893V320.13C87.392 325.579 91.8067 329.994 97.2562 329.994H232.878C238.328 329.994 242.743 325.579 242.743 320.13V281.601C242.743 276.151 247.157 271.736 252.607 271.736H291.136C296.585 271.736 301 267.322 301 261.872V97.1152C301 91.6657 296.585 87.251 291.136 87.251L291.142 87.2572Z" fill="white"/>
</svg>
