<svg width="301" height="301" viewBox="0 0 301 301" fill="none" xmlns="http://www.w3.org/2000/svg">
<path d="M9.86421 233.035H58.1005C63.5437 233.035 67.9647 237.456 67.9647 242.9V291.136C67.9647 296.579 63.5437 301 58.1005 301H9.86421C4.42102 301 0 296.579 0 291.136V242.9C0 237.456 4.42102 233.035 9.86421 233.035Z" fill="white"/>
<path d="M291.142 58.2572H252.613C247.164 58.2572 242.749 53.8425 242.749 48.393V9.86423C242.749 4.41477 238.334 0 232.885 0H68.1276C62.6781 0 58.2634 4.41477 58.2634 9.86423V48.393C58.2634 53.8425 53.8486 58.2572 48.3991 58.2572H9.87034C4.42087 58.2572 0.00610352 62.672 0.00610352 68.1215V203.744C0.00610352 209.193 4.42087 213.608 9.87034 213.608H58.1066C63.5561 213.608 67.9708 209.193 67.9708 203.744V77.8289C67.9708 72.3795 72.3856 67.9647 77.835 67.9647H223.171C228.62 67.9647 233.035 72.3795 233.035 77.8289V223.165C233.035 228.614 228.62 233.029 223.171 233.029H97.2562C91.8067 233.029 87.392 237.444 87.392 242.893V291.13C87.392 296.579 91.8067 300.994 97.2562 300.994H232.878C238.328 300.994 242.743 296.579 242.743 291.13V252.601C242.743 247.151 247.157 242.736 252.607 242.736H291.136C296.585 242.736 301 238.322 301 232.872V68.1152C301 62.6657 296.585 58.251 291.136 58.251L291.142 58.2572Z" fill="white"/>
</svg>
